# xmcd
#
# Track frame offsets:
# 150
# 18040
# 35810
# 53907
#
# Disc length: 950 seconds
#
#
# Revision: 1
# Processed by: cddbd v1.5.2PL0 Copyright (c) Steve Scherf et al.
# Submitted via: FreeRIP 2.944 
#
DISCID=2a03b404
DTITLE=Boss - Deeper
DYEAR=1993
DGENRE=Funk
TTITLE0=Deeper (Radio Edit)
TTITLE1=Deeper (Instrumental)
TTITLE2=Deeper (LP Version)
TTITLE3=Drive By (Rollin' Slow Remix)
EXTD=YEAR: 2000
EXTT0=
EXTT1=
EXTT2=
EXTT3=
PLAYORDER=
